# xmcd
#
# Track frame offsets:
# 150
# 17965
# 36012
# 54617
# 81558
# 109584
# 127453
# 153334
# 174344
# 195989
# 222209
# 242171
# 264877
#
# Disc length: 3879 seconds
#
# Revision: 0
# Processed by: cddbd v1.5.1PL0 Copyright (c) Steve Scherf et al.
# Submitted via: Audion 3.0.2 (http://www.panic.com/audion/)
#
DISCID=b10f250d
DTITLE=Bluebone - Radio
DYEAR=1900
DGENRE=
TTITLE0=Radio
TTITLE1=I've Been Up
TTITLE2=Way Too Crazy
TTITLE3=You Got Me Comin'
TTITLE4=Deep and Wide
TTITLE5=Wanderin' Woman
TTITLE6=No Good Reason
TTITLE7=The Day You Turned Away
TTITLE8=Eddie
TTITLE9=You Talk Too Much
TTITLE10=It Never Rains
TTITLE11=Dumb and Easy
TTITLE12=Hothouse
EXTD=
EXTT0=
EXTT1=
EXTT2=
EXTT3=
EXTT4=
EXTT5=
EXTT6=
EXTT7=
EXTT8=
EXTT9=
EXTT10=
EXTT11=
EXTT12=
PLAYORDER=
